<?xml version="1.0" encoding="utf-8"?>
<!-- Generator: Adobe Illustrator 21.0.2, SVG Export Plug-In . SVG Version: 6.00 Build 0)  -->
<svg version="1.1" id="Layer_1" xmlns="http://www.w3.org/2000/svg" xmlns:xlink="http://www.w3.org/1999/xlink" x="0px" y="0px"
	 viewBox="0 0 50 50" style="enable-background:new 0 0 50 50;" xml:space="preserve">
<circle style="fill:#5AAAFA;" cx="25" cy="25" r="24"/>
<path style="fill:#FFFFFF;" d="M42,29.7c0.2,0,0.4,0.1,0.5,0.2c0.1,0.1,0.2,0.3,0.2,0.5c0,0.2-0.1,0.4-0.2,0.5
	c-0.1,0.1-0.3,0.2-0.5,0.2c-0.2,0-0.4-0.1-0.5-0.2c-0.1-0.1-0.2-0.3-0.2-0.5c0-0.2,0.1-0.4,0.2-0.5C41.7,29.8,41.8,29.7,42,29.7z
	 M42.8,30.4c0-0.2-0.1-0.4-0.2-0.6c-0.2-0.2-0.3-0.2-0.6-0.2c-0.2,0-0.4,0.1-0.6,0.2c-0.2,0.2-0.2,0.3-0.2,0.6
	c0,0.2,0.1,0.4,0.2,0.6c0.2,0.2,0.3,0.2,0.6,0.2c0.2,0,0.4-0.1,0.6-0.2C42.8,30.8,42.8,30.6,42.8,30.4z M42.2,30.3
	c0,0.1,0,0.1-0.1,0.1c0,0-0.1,0-0.1,0h-0.1v-0.3H42c0.1,0,0.1,0,0.2,0C42.2,30.1,42.2,30.2,42.2,30.3z M41.7,30v0.9h0.2v-0.3H42
	c0.1,0,0.1,0,0.2,0c0.1,0,0.1,0.1,0.1,0.2v0.1l0,0c0,0,0,0,0,0c0,0,0,0,0,0h0.1l0,0c0,0,0,0,0,0c0,0,0,0,0-0.1v-0.1c0,0,0-0.1,0-0.1
	c0,0-0.1-0.1-0.1-0.1c0.1,0,0.1,0,0.1,0c0.1,0,0.1-0.1,0.1-0.2c0-0.1,0-0.2-0.1-0.2c-0.1,0-0.1,0-0.2,0H41.7z"/>
<g>
	<polygon style="fill:#FFFFFF;" points="9.1,18.8 15.2,18.8 15.2,19.6 9.1,19.6 9.1,18.8 	"/>
	<polygon style="fill:#FFFFFF;" points="9.1,20.4 15.2,20.4 15.2,21.2 9.1,21.2 9.1,20.4 	"/>
	<polygon style="fill:#FFFFFF;" points="10.9,22.1 13.5,22.1 13.5,22.9 10.9,22.9 10.9,22.1 	"/>
	<polygon style="fill:#FFFFFF;" points="10.9,23.8 13.5,23.8 13.5,24.6 10.9,24.6 10.9,23.8 	"/>
	<polygon style="fill:#FFFFFF;" points="10.9,25.4 13.5,25.4 13.5,26.2 10.9,26.2 10.9,25.4 	"/>
	<polygon style="fill:#FFFFFF;" points="10.9,27.1 13.5,27.1 13.5,27.9 10.9,27.9 10.9,27.1 	"/>
	<polygon style="fill:#FFFFFF;" points="9.1,28.8 15.2,28.8 15.2,29.6 9.1,29.6 9.1,28.8 	"/>
	<polygon style="fill:#FFFFFF;" points="9.1,30.4 15.2,30.4 15.2,31.2 9.1,31.2 9.1,30.4 	"/>
	<path style="fill:#FFFFFF;" d="M16.1,20.4h9.4c0.1,0.1,0.2,0.6,0.3,0.8h-9.7V20.4L16.1,20.4z"/>
	<polygon style="fill:#FFFFFF;" points="17.8,22.1 20.5,22.1 20.5,22.9 17.8,22.9 17.8,22.1 	"/>
	<path style="fill:#FFFFFF;" d="M23.1,22.1h2.8c0,0.2-0.1,0.6-0.1,0.8h-2.7V22.1L23.1,22.1z"/>
	<path style="fill:#FFFFFF;" d="M17.8,25.4h6.7c0.2,0.1,0.6,0.6,0.7,0.8h-7.4V25.4L17.8,25.4z"/>
	<polygon style="fill:#FFFFFF;" points="17.8,27.1 20.5,27.1 20.5,27.9 17.8,27.9 17.8,27.1 	"/>
	<path style="fill:#FFFFFF;" d="M23.1,27.1h2.7c0.1,0.1,0.1,0.6,0.2,0.8h-2.8V27.1L23.1,27.1z"/>
	<path style="fill:#FFFFFF;" d="M16.1,28.8h9.7c0,0.2-0.2,0.6-0.2,0.8h-9.4V28.8L16.1,28.8z"/>
	<path style="fill:#FFFFFF;" d="M16.1,30.4h8.7c-0.8,0.6-1.5,0.8-2.7,0.8h-0.9h-5.2V30.4L16.1,30.4z"/>
	<polygon style="fill:#FFFFFF;" points="26.6,18.8 31.5,18.8 31.8,19.6 26.6,19.6 26.6,18.8 	"/>
	<polygon style="fill:#FFFFFF;" points="26.6,20.4 32.1,20.4 32.4,21.2 26.6,21.2 26.6,20.4 	"/>
	<polygon style="fill:#FFFFFF;" points="28.3,22.1 32.6,22.1 32.9,22.9 28.3,22.9 28.3,22.1 	"/>
	<polygon style="fill:#FFFFFF;" points="33.9,23.8 38.8,23.8 38.8,24.6 36.1,24.6 36.1,23.9 35.9,24.6 33.6,24.6 33.9,23.8 	"/>
	<polygon style="fill:#FFFFFF;" points="33.5,24.6 31.2,24.6 30.9,23.9 30.9,24.6 28.3,24.6 28.3,23.8 33.2,23.8 33.5,24.6 	"/>
	<polygon style="fill:#FFFFFF;" points="28.3,25.4 30.9,25.4 30.9,26.2 28.3,26.2 28.3,25.4 	"/>
	<polygon style="fill:#FFFFFF;" points="28.3,27.1 30.9,27.1 30.9,27.9 28.3,27.9 28.3,27.1 	"/>
	<polygon style="fill:#FFFFFF;" points="26.6,28.8 30.9,28.8 30.9,29.6 26.6,29.6 26.6,28.8 	"/>
	<polygon style="fill:#FFFFFF;" points="26.6,30.4 30.9,30.4 30.9,31.2 26.6,31.2 26.6,30.4 	"/>
	<polygon style="fill:#FFFFFF;" points="35.5,18.8 40.5,18.8 40.5,19.6 35.3,19.6 35.5,18.8 	"/>
	<polygon style="fill:#FFFFFF;" points="35,20.4 40.5,20.4 40.5,21.2 34.7,21.2 35,20.4 	"/>
	<polygon style="fill:#FFFFFF;" points="34.4,22.1 38.8,22.1 38.8,22.9 34.2,22.9 34.4,22.1 	"/>
	<polygon style="fill:#FFFFFF;" points="36.1,25.4 38.8,25.4 38.8,26.2 36.1,26.2 36.1,25.4 	"/>
	<polygon style="fill:#FFFFFF;" points="36.1,27.1 38.8,27.1 38.8,27.9 36.1,27.9 36.1,27.1 	"/>
	<polygon style="fill:#FFFFFF;" points="36.1,28.8 40.5,28.8 40.5,29.6 36.1,29.6 36.1,28.8 	"/>
	<polygon style="fill:#FFFFFF;" points="36.1,30.4 40.5,30.4 40.5,31.2 36.1,31.2 36.1,30.4 	"/>
	<polygon style="fill:#FFFFFF;" points="31.4,25.4 35.6,25.4 35.3,26.2 31.7,26.2 31.4,25.4 	"/>
	<polygon style="fill:#FFFFFF;" points="32,27.1 35.1,27.1 34.8,27.9 32.3,27.9 32,27.1 	"/>
	<polygon style="fill:#FFFFFF;" points="32.6,28.8 34.5,28.8 34.2,29.6 32.8,29.6 32.6,28.8 	"/>
	<polygon style="fill:#FFFFFF;" points="33.1,30.4 33.9,30.4 33.7,31.2 33.4,31.2 33.1,30.4 	"/>
	<path style="fill:#FFFFFF;" d="M17.8,24.6h6.7c0.2-0.2,0.6-0.6,0.8-0.8h-7.5V24.6L17.8,24.6z"/>
	<path style="fill:#FFFFFF;" d="M16.1,19.6h8.7c-0.8-0.6-1.5-0.8-2.7-0.8h-0.9h-5.2V19.6L16.1,19.6z"/>
</g>
</svg>
